<svg xmlns="http://www.w3.org/2000/svg" width="558.873" height="260.175" viewBox="0 0 558.873 260.175">
  <g id="Group_1386" data-name="Group 1386" transform="translate(0 0)">
    <g id="Group_1383" data-name="Group 1383" transform="translate(0 0)">
      <path id="Path_850" data-name="Path 850" d="M527.448,185.9c-6.178-8.043-10.274-15.634-11.051-32.089-.644-13.639,3.1-25.8,9.187-33.554a64.3,64.3,0,0,1-5.326-7.856c-2.919-5.183-5.21-13.489,1.2-16.644,4.365-2.149,10.841.068,15.179,1.6,4.935,1.74,9.1,3.672,13.049,5.459,10.866-4.669,24.029-7.04,39.279-7.323-.983-9.3-.477-18.86,2-25.7a33.993,33.993,0,0,1,5.193-9.054,30.907,30.907,0,0,1,6.924-7.057c1.444,11.781,2.77,13.826,10.785,20.505,8.591,7.159,15.87,14.271,18.907,27.163,12.48,5.957,21.4,15.5,28.494,27.029,6.988,11.352,11.929,25.481,13.581,41.809.8,7.864.4,15.91.133,23.7-.266,7.682-1.1,15.243-2,22.369-1.84,14.644-5.011,28.327-5.06,43.54-.024,7.408.8,15.095,3.2,20.771,2.415,5.721,4.688,11.121,7.323,16.377-19.668-3.421-27.739-14.262-33.953-19.573,1.134,4.37,2.82,8.187,4.261,12.25-8.689-3.133-16.765-6.4-23.3-16.644A180.759,180.759,0,0,0,582.839,287.9c-12.7,6.387-23.969,14.4-31.557,25.964-1.291-3.828-3.068-6.7-3.728-10.652-1.551-9.291.8-17.912,3.329-24.766,2.632-7.127,6.725-12.8,10.918-17.842,9.2-11.05,20.416-19.062,29.826-28.228.025-.108.134-.133.133-.266-12.982,5.129-29.222,12.046-42.874,9.32-9.95-1.987-17.476-5.877-22.5-13.049a24.952,24.952,0,0,1-4.926-12.915C520.7,203.568,524.526,195.065,527.448,185.9Z" transform="translate(-516.325 -53.686)" fill="#fff" fill-rule="evenodd"/>
      <path id="Path_851" data-name="Path 851" d="M568.826,509.1c15.725-8.767,37.3-11.632,51.4-21.7,1.145-4.669,4.593-7.745,3.995-13.714-8.644,6.444-22.625,8.989-37.415,10.785-10.9,1.324-19.238,2.091-27.828,7.989-1.467,1.007-5.84,4.047-6.258,5.726-.44,1.77.006,4.351.133,6.524a49.862,49.862,0,0,0,3.861,16.51C558.955,515.659,563.73,511.94,568.826,509.1Z" transform="translate(-546.385 -402.446)" fill="#e50019"/>
      <path id="Path_852" data-name="Path 852" d="M1031.842,267.721c.567.1.709-.636.932-.932,5.029-6.68,10.678-15.863,7.989-27.962-2.377-10.7-9.258-17.819-15.179-24.633,0-.074-.108-.151-.133,0,1.027,8.651,3.4,17.308,5.193,26.1C1032.381,248.786,1034.255,258.553,1031.842,267.721Z" transform="translate(-939.098 -186.898)" fill="#dfe8f0"/>
      <path id="Path_853" data-name="Path 853" d="M591.418,386.757c9.963-1.273,20.622-3.366,28.494-7.057,1.519-.712,6.9-3.033,7.323-4.527.35-1.24-.278-3.383-.4-4.794-.155-1.791-.419-3.4-.533-4.793-6.975-3.149-16.577-6.578-26.63-6.524-4,.022-8.062.393-11.185,1.731,3.317,2.542,6.9,4.822,10.253,7.323a11.593,11.593,0,0,1,1.2-2.929c2.128,4.432-1.522,9.416-3.994,12.117-6.018,6.573-17.557,10.432-28.361,10.652,1.944-.541,3.669-1.3,5.592-1.864-3.155-2.837-6.445-5.538-9.72-8.255-3.967,5.4-6.574,12.155-7.456,20.638a39.831,39.831,0,0,1,14.913-8.522C576.938,388.015,583.834,387.726,591.418,386.757Z" transform="translate(-549.271 -307.267)" fill="#fe0"/>
      <path id="Path_854" data-name="Path 854" d="M587.723,725.155c1.707-5.217,4.069-10.489,5.859-15.179a26.858,26.858,0,0,0-9.321,10.253A27.355,27.355,0,0,0,587.723,725.155Z" transform="translate(-572.738 -598.662)" fill="#e0007a"/>
      <path id="Path_855" data-name="Path 855" d="M1246.148,463.855c-1.909,14.457-5.2,28.422-10.785,38.747.5.2.7-.439.932-.666a131.621,131.621,0,0,0,15.445-17.975,81.682,81.682,0,0,0,6.924-10.918c1.932-3.757,4.495-8.442,4.793-13.049.209-3.231-.53-7.307-1.065-10.652-3.738-23.339-14.372-41.57-29.693-52.594C1242.789,412.812,1249.6,437.741,1246.148,463.855Z" transform="translate(-1111.196 -338.56)" fill="#00a1ed"/>
      <path id="Path_856" data-name="Path 856" d="M1107.809,440.262c2.106,6.657,4.156,14.124,4.128,22.1a52.512,52.512,0,0,1-3.6,18.242c-1.98,5.38-4.119,10.588-6.391,15.579-4.636,10.182-8.991,21.091-7.723,35.418,1.065-6.415,5.014-11.038,8.122-15.845,6.3-9.743,14.535-17.657,18.907-29.027a113.947,113.947,0,0,0,5.459-18.641c2.8-13.943,2.4-30.072.133-43.94-2.244-13.745-6.949-25.351-13.98-34.086-.007-.14-.171-.1-.133.133-.3,14.167-5.632,23.306-12.25,31.157A133,133,0,0,1,1107.809,440.262Z" transform="translate(-996.025 -332.943)" fill="#00973d"/>
      <path id="Path_857" data-name="Path 857" d="M878.794,337.691a111.5,111.5,0,0,0-15.845.932c5.865,1.592,12.358,3.265,17.443,5.193C879.845,341.788,879.308,339.751,878.794,337.691Z" transform="translate(-804.158 -289.49)" fill="#00973d"/>
      <path id="Path_858" data-name="Path 858" d="M576.445,358.956c.921.864,2.435,2.51,3.329,2.663,1.93.332,4.7-.762,6.391-1.331a27.817,27.817,0,0,0,13.581-9.72,109.121,109.121,0,0,0-17.576-9.853c-6.417-2.809-13.482-6.138-20.638-6.791a3.11,3.11,0,0,0-1.332.4c-.965,3.185.911,6.2,2.4,8.655C566.366,349.2,571.216,354.052,576.445,358.956Z" transform="translate(-552.539 -286.389)" fill="#fe9d2b"/>
      <path id="Path_859" data-name="Path 859" d="M828.763,689.8a10.889,10.889,0,0,0-2.264-5.725c-4.915.114-8.694,3.151-9.32,7.456-.531,3.65.022,8.289-1.331,11.717C821.5,700.431,829.506,698.718,828.763,689.8Z" transform="translate(-765.045 -577.151)" fill="#e50019"/>
      <path id="Path_860" data-name="Path 860" d="M797.572,1072.24c-4.224-4.849-5.6-12.989-4.927-21.7.646-8.381,3.109-15.306,5.326-21.7.074,0,.151-.108,0-.133-1.192.655-2.448,1.5-3.861,2.264-1.3.7-2.912,1.1-3.728,1.864a17.6,17.6,0,0,0-1.6,2.4c-8.433,11.72-20.131,19.9-30.491,29.693-11.343,10.723-22.855,23.857-21.97,46.07.792-.179.937-1.083,1.331-1.6,3.294-4.3,7.972-7.3,12.516-10.253,15.693-10.192,34.591-17.834,55.523-22.5-2.1-5.13-3.043-11.426-3.462-18.242C800.749,1063.078,799.7,1068.2,797.572,1072.24Z" transform="translate(-698.969 -863.328)" fill="#dfe8f0"/>
      <path id="Path_861" data-name="Path 861" d="M1164.154,898.27c.456-6.688,2.831-12.753,5.459-18.108a130.559,130.559,0,0,1,8.788-14.913c4.69-7.032,9.91-13.738,13.848-21.57a42.406,42.406,0,0,0,3.462-8.389c.665-3.028.463-6.666.666-10.119a74.32,74.32,0,0,0,.133-10.785c-1.868,6.078-5.418,11.646-8.921,16.644a151.512,151.512,0,0,1-23.967,26.5,50.255,50.255,0,0,0-6.125,6.524c-1.807,2.314-4.06,5.419-4.794,7.856-1.094,3.636-.865,8.021-.4,11.85,1.289,10.616,5.894,18.658,11.984,24.233.546.5,1.344,1.214,1.731,1.065A20.692,20.692,0,0,1,1164.154,898.27Z" transform="translate(-1044.114 -685.364)" fill="#e0007a"/>
      <path id="Path_862" data-name="Path 862" d="M1275.044,1035.21c.979-12.843,3.341-25.06,4.793-37.016-.007-.081-.02-.158-.133-.133-1.748,3.8-4.264,7.151-6.791,10.785-5.819,8.37-12.189,16.244-16.244,26.364-.751,1.873-2.057,4.864-2,6.524.046,1.275,1.165,3.394,1.864,4.927a49.822,49.822,0,0,0,23.834,24.366C1275.093,1062.36,1274.008,1048.8,1275.044,1035.21Z" transform="translate(-1129.439 -837.882)" fill="#76187e"/>
      <path id="Path_863" data-name="Path 863" d="M904.727,915.811c.93,1.85,4.3,3.767,3.862,6.657-.3,1.978-3.713,3.585-4.794,4.793.457,1.645,2.132,2.483,2,4.128-.1,1.186-1.588,2.071-2.264,3.063-1.335,1.958-2.081,4.874-3.6,5.592-.632-4.278,1.858-6.57,3.462-9.054-.528-1.435-2.373-2.676-2.13-4.261.148-.965,1.848-1.733,2.663-2.4,1.1-.9,2.092-1.629,2.4-2.53a11.07,11.07,0,0,0-2.4-3.6c-.823-.892-2.108-2.526-3.329-2.663a9.234,9.234,0,0,0-4.927,1.332c-2.253,1.551-2.564,5.547-3.062,9.054-1.034,7.284-2.438,15.492-5.326,19.839a280.748,280.748,0,0,0,26.5-11.318C916.242,925.407,913.048,916.573,904.727,915.811Z" transform="translate(-824.366 -769.346)" fill="#fff"/>
      <path id="Path_864" data-name="Path 864" d="M638.081,265.905c2.752-7.324,15.769-7.3,21.837-2.929,5.025,3.616,5.874,9.686,4.66,16.91,9.766-4.056,16.572-11.387,18.375-23.035,1.921-12.412-3.53-22.971-8.522-30.092-3.535-5.043-7.271-9.378-9.187-15.312a16.725,16.725,0,0,1-8.655.666c3.451-2.689,7.823-3.713,11.451-5.859A30.79,30.79,0,0,0,677.228,198a35.332,35.332,0,0,0,6.657-27.3c-1.53-9.946-5.687-17.659-11.451-23.3-5.838-5.715-13.542-9.621-16.511-18.242-.007-.081-.02-.158-.133-.133-2.784,4.187-4.059,8.4-4.66,14.247-1.809,17.589,6.337,35.144,1.731,50.6a46.362,46.362,0,0,1-1.731,4.66c-.676,1.571-1.709,2.716-2.13,4.128a10.131,10.131,0,0,0,.8,7.856,6.128,6.128,0,0,1-3.861-5.459c-13.206,8.809-33.153,12.029-47.268,20.372-3.857,7.12-6.191,15.714-9.054,24.366-2.816,8.507-6.367,17.375-5.726,27.7.412,6.638,4.2,11.458,8.522,14.78a32.618,32.618,0,0,0,17.31,5.992c8.37.464,14.366-2.173,20.9-3.861,3.975-4.833,5.4-12.566,6.258-20.638C637.171,271.038,637.265,268.078,638.081,265.905Zm-31.69,10.253c-3.491,1.538-8.428,1.666-8.921-2.8-.48-4.346,3.286-10.254,7.856-9.454a3.555,3.555,0,0,1,2,2.263c.722,3.566-1.651,5.767-2.8,7.989,2.655-.585,4.8-2.387,6.658-3.329C610.632,273.8,608.827,275.085,606.392,276.158Zm50.863-141.405c.736,1.273.369,3.188.932,4.793.377,1.075,2.075,2.485,2.93,3.462a127.019,127.019,0,0,1,8.521,10.386c3.424,4.905,6.537,10.356,7.057,18.108a34.624,34.624,0,0,1-5.726,21.57,51.17,51.17,0,0,1-13.049,14.114c7.167-11.541,6.532-21.692,4.793-32.222-1.866-11.3-5.694-21.981-6.258-33.288A21.671,21.671,0,0,1,657.255,134.753ZM614.913,248.063c-.083-.534.622-.677.932-.932a15.773,15.773,0,0,0,5.992-11.85c.06-1.053-.042-1.971,0-2.929.284-6.452,3.3-11.014,9.587-11.717,4.384-.49,8.65,1.731,9.587,4.794a13.85,13.85,0,0,1-3.2-1.2c.337,2.925,1.738,6.323.932,9.321-1.783,6.634-10.776,9.309-16.777,12.25C619.683,246.921,617.406,248.48,614.913,248.063Zm18.641,7.323c-1.829,2.889-1.854,7.177-2.263,11.717-2.682-4-1.1-11.609,1.065-14.38,5.709-7.31,21.195-3.02,25.3,2.263-5.892-.442-9.946-4.708-16.378-3.994A11.164,11.164,0,0,0,633.554,255.387Z" transform="translate(-572.367 -116.245)" fill="#dfe8f0"/>
      <path id="Path_865" data-name="Path 865" d="M1025.451,214.194c1.027,8.651,3.4,17.308,5.193,26.1,1.737,8.495,3.611,18.261,1.2,27.429.567.1.709-.636.932-.932a58.312,58.312,0,0,0,4.625-7.012,53.8,53.8,0,0,0,.7-9.765,54.852,54.852,0,0,0-1.465-13.182c-1.529-6-4.226-10.618-6.524-15.445-.515-1.082-.883-2.36-1.281-3.476-1.092-1.261-2.185-2.493-3.246-3.714C1025.584,214.12,1025.476,214.043,1025.451,214.194Z" transform="translate(-939.098 -186.898)" fill="#b4d9ee"/>
      <path id="Path_866" data-name="Path 866" d="M1023.289,182.339a127.037,127.037,0,0,1,8.522,10.386c3.405,4.879,6.5,10.3,7.047,17.983-.595-17.144-10.619-24.859-18.9-34.32a10.055,10.055,0,0,0,.4,2.49C1020.737,179.952,1022.434,181.362,1023.289,182.339Z" transform="translate(-934.539 -155.576)" fill="#b4d9ee"/>
      <path id="Path_867" data-name="Path 867" d="M583.784,368.022c.932,1.065,1.97,2.072,2.8,2.929a110.227,110.227,0,0,0,15.046,13.581c.482.344,1.079.882,1.657,1.361l.473-.163a28.429,28.429,0,0,0,7.437-3.745c-10.407-5.418-19.488-12.679-30.072-17.426A16.5,16.5,0,0,0,583.784,368.022Z" transform="translate(-570.131 -311.833)" fill="#e77828"/>
      <path id="Path_868" data-name="Path 868" d="M781.18,379.226c1.531,1.063,3.062,2.127,4.548,3.235a16.089,16.089,0,0,1,.54-1.6,11,11,0,0,0-1.072-4.521C783.842,377.159,782.532,378.309,781.18,379.226Z" transform="translate(-736.258 -321.611)" fill="#ffcd00"/>
      <path id="Path_869" data-name="Path 869" d="M1152.993,547.309a81.808,81.808,0,0,0,4.128-22.9c.181-3.44-.972-6.5-1.864-8.921a54.549,54.549,0,0,0-5.992-12.117c-.382-.556-1-1.511-1.656-2.434a51.845,51.845,0,0,1-6.728,10.757c.477.666,1.014,1.307,1.326,1.8C1147.992,522.573,1151.448,534.641,1152.993,547.309Z" transform="translate(-1034.95 -425.077)" fill="#248332"/>
      <path id="Path_870" data-name="Path 870" d="M633.866,529.03c.028-.028.058-.054.09-.079l-.381.022Z" transform="translate(-613.688 -448.341)" fill="#009cdc"/>
      <path id="Path_871" data-name="Path 871" d="M615.663,502.259c.864.217,1.471.321,2.192.451,1.656-.516,3.184-1.158,4.865-1.649-1.338-1.2-2.7-2.381-4.077-3.547-.41.642-.753,1.421-1.116,1.95A23.656,23.656,0,0,0,615.663,502.259Z" transform="translate(-598.814 -422.235)" fill="#ffcd00"/>
      <path id="Path_872" data-name="Path 872" d="M1207.715,691.51c-.456,2.544-.021,5.21-.266,7.723a62.009,62.009,0,0,0-.666,7.057,60.477,60.477,0,0,0,3.995-7.723c1.251-2.787,3.189-6.339,3.462-9.454.51-5.816-.369-14.279-1.065-19.173a81.1,81.1,0,0,1-3.462,16.777C1209.136,688.369,1207.983,690.019,1207.715,691.51Z" transform="translate(-1089.672 -565.417)" fill="#248332"/>
      <path id="Path_873" data-name="Path 873" d="M892.957,690.35c.337,2.925,1.738,6.323.932,9.321a10.027,10.027,0,0,1-2.82,4.59,8.963,8.963,0,0,0,2.154-1.394c2.524-2.307,3.791-7.444,2.641-11.384A15.14,15.14,0,0,1,892.957,690.35Z" transform="translate(-827.509 -582.365)" fill="#b4d9ee"/>
      <path id="Path_874" data-name="Path 874" d="M827.9,686.425a13.34,13.34,0,0,0-1.4-2.355c-4.915.114-8.694,3.151-9.32,7.456-.531,3.65.022,8.289-1.331,11.717.871-.433,1.8-.841,2.74-1.252.026-.891-.017-1.862.056-2.876C819.137,692.336,820.546,686.24,827.9,686.425Z" transform="translate(-765.045 -577.151)" fill="#bd0015"/>
      <path id="Path_875" data-name="Path 875" d="M913.357,684.719l-.127-.028q.165.17.314.348C913.483,684.931,913.422,684.823,913.357,684.719Z" transform="translate(-845.911 -577.666)" fill="#009cdc"/>
      <path id="Path_876" data-name="Path 876" d="M705.058,921.689c-.435-3.947-5.376-5.043-8.519-2.616a4.892,4.892,0,0,1,2.394-.18,3.555,3.555,0,0,1,2,2.264c.722,3.566-1.651,5.767-2.8,7.989,2.38-.524,4.35-2.025,6.07-3.009A8.711,8.711,0,0,0,705.058,921.689Z" transform="translate(-665.973 -771.229)" fill="#b4d9ee"/>
      <path id="Path_877" data-name="Path 877" d="M843.636,393.626c-.585,4.584-7.866,7.994-10.519,10.519a50.851,50.851,0,0,0,22.236-7.19c.654-.415,1.4-.882,2.1-1.4-.046-1.18-.409-2.616-.5-3.655-.084-.978-.2-1.9-.309-2.763-4.713-1.861-10.776-2.958-15.669-4.161A10.317,10.317,0,0,1,843.636,393.626Z" transform="translate(-779.386 -328.782)" fill="#ffcd00"/>
      <path id="Path_878" data-name="Path 878" d="M659.006,483c-4.806,1.8-10.717,2.032-15.978,3.063-11.378,2.228-19.371,6.657-24.9,13.315-.2.052-.02.16.133,0,6.254-2.179,11.77-5.1,18.641-6.658-7.924,4.817-17.332,8.85-22.92,15.576l.018,0c4.565-2.023,9.237-4.4,14.247-6.524,9.845-4.169,21.1-6.726,31.157-10.652,4.151-1.62,8.8-3.013,12.312-5.237,1.4-3.882,4.065-6.9,3.533-12.206q-.8.593-1.651,1.143C670.63,479.029,664.631,480.888,659.006,483Z" transform="translate(-597.419 -402.446)" fill="#ae0721"/>
      <path id="Path_879" data-name="Path 879" d="M613.308,677.905c.037-.046.077-.09.115-.135C613.327,677.758,613.315,677.829,613.308,677.905Z" transform="translate(-596.859 -571.918)" fill="#009cdc"/>
      <path id="Path_880" data-name="Path 880" d="M1273.034,617.372c-1.692,3.013-3.728,6.392-5.326,9.054-.047-13.091-1.116-25.159-5.992-33.421,1.185,12.569.548,28.189-1.731,39.545a118.84,118.84,0,0,1-3.995,14.913,61.807,61.807,0,0,1-2.762,6.757,72.485,72.485,0,0,1-4.828,11.352c.5.2.7-.439.932-.666a116.369,116.369,0,0,0,8.747-9.375,93.277,93.277,0,0,0,7.764-12.861C1269.406,635.467,1272.729,627.305,1273.034,617.372Z" transform="translate(-1124.234 -501.532)" fill="#008dcf"/>
      <path id="Path_881" data-name="Path 881" d="M1163.617,862.364c6.341-9.993,12.827-20.549,13.848-35.418a46.613,46.613,0,0,1-7.456,13.315C1168.322,847.984,1165.12,854.9,1163.617,862.364Z" transform="translate(-1053.83 -695.793)" fill="#248332"/>
      <path id="Path_882" data-name="Path 882" d="M1152.7,963.823c-1.094,3.636-.865,8.021-.4,11.85,1.289,10.616,5.894,18.658,11.984,24.233.546.5,1.344,1.214,1.731,1.065a21.777,21.777,0,0,1-1.532-4.6c-2.4-6.9-1.142-15.931,1-22.7,3.224-10.192,8.646-17.983,13.315-25.565-5.906,5.012-10.986,11.561-15.978,17.043,1.474-6.6,5.257-10.682,9.187-14.913,2.379-2.561,4.835-5.018,7.057-7.589a69.689,69.689,0,0,0,11.584-17.576,111.707,111.707,0,0,1-15.978,16.378c-2.815,2.393-6.2,4.5-9.187,6.924-1.457,1.18-2.854,2.6-4.261,3.861-.7.627-1.438,1.214-2.14,1.8-.543.625-1.074,1.268-1.589,1.927C1155.689,958.281,1153.436,961.386,1152.7,963.823Z" transform="translate(-1044.114 -777.279)" fill="#bb0068"/>
      <path id="Path_883" data-name="Path 883" d="M911.984,1058.393c-1.483,4.686-2.533,9.805-4.66,13.847-4.224-4.849-5.6-12.989-4.927-21.7.646-8.381,3.109-15.306,5.326-21.7.074,0,.151-.108,0-.133-1.192.655-2.448,1.5-3.861,2.264-1.3.7-2.912,1.1-3.728,1.864a17.6,17.6,0,0,0-1.6,2.4c-1.186,1.648-2.438,3.224-3.74,4.746,2.183-.912,4.171-1.964,6.137-2.749-6.051,12.534-11.89,24.5-20.372,34.219a134.118,134.118,0,0,0-9.72,11.717c-.413.6-1.277,1.315-.932,1.6a3.581,3.581,0,0,0-1.465,1.6c13.776-5.708,22.42-16.549,29.959-28.494.1,5.834-2.33,10.344-4.66,14.38a63.677,63.677,0,0,1-7.989,11.052,48.874,48.874,0,0,1-4.765,4.526,185.427,185.427,0,0,1,34.457-11.183C913.342,1071.5,912.4,1065.208,911.984,1058.393Z" transform="translate(-808.721 -863.328)" fill="#b4d9ee"/>
      <path id="Path_884" data-name="Path 884" d="M1254.672,1114.16c.046,1.275,1.165,3.394,1.864,4.927a49.8,49.8,0,0,0,22.774,23.839l-.005-.005a41.454,41.454,0,0,1-3.062-3.329,33.533,33.533,0,0,1-4.793-7.989c-.851-2.207-.52-5.256-.4-7.989.2-4.471-.141-9.361.266-13.182-.856,1.94-1.98,4.322-3.2,5.459.23-9.711,3-17.594,3.995-26.1a62.733,62.733,0,0,0-7.989,16.378,138.092,138.092,0,0,1,5.955-20.9c-4.971,6.952-10.007,13.865-13.411,22.36C1255.919,1109.509,1254.612,1112.5,1254.672,1114.16Z" transform="translate(-1129.439 -910.308)" fill="#610f68"/>
      <path id="Path_885" data-name="Path 885" d="M656.121,847.766c.095-3.547.872-7.322.4-11.185-.115-.944-.339-1.918-.527-2.866-.043.551-.088,1.107-.138,1.667-2.682-4-1.1-11.609,1.065-14.38,5.414-6.933,19.622-3.432,24.574,1.456l.458.142c-2.773-4.36-8.04-8.724-14.513-9.187a13.694,13.694,0,0,0-14.513,10.519,47.424,47.424,0,0,0-.533,6.791c-.441,7.1-1.749,13.341-4.527,18.508-.09-2.793.321-5.352,0-7.989-3.916,4.176-9.218,8.285-17.176,8.655a23.692,23.692,0,0,1-13.448-3.728,24.713,24.713,0,0,1-3.846,11.076,26.087,26.087,0,0,0,3.58,3.3,32.617,32.617,0,0,0,17.31,5.992c7.947.44,13.755-1.914,19.918-3.6,4.3-5.677,5.754-14.951,5.78-24.1A31.829,31.829,0,0,1,656.121,847.766Z" transform="translate(-596.931 -684.524)" fill="#b4d9ee"/>
      <path id="Path_886" data-name="Path 886" d="M606.745,709.976a28.436,28.436,0,0,0-2.69,1.988,21.183,21.183,0,0,0-3.3,6.267,26.152,26.152,0,0,0-.631,6.091,9.807,9.807,0,0,0,.764.833C602.594,719.938,604.956,714.667,606.745,709.976Z" transform="translate(-585.902 -598.662)" fill="#bb0068"/>
      <path id="Path_887" data-name="Path 887" d="M1021.348,609.419q.626-.391,1.277-.737l-.048,0A2.447,2.447,0,0,0,1021.348,609.419Z" transform="translate(-935.691 -514.549)" fill="#009cdc"/>
      <path id="Path_888" data-name="Path 888" d="M646.669,456.173a69.856,69.856,0,0,1,12.915-7.856c9.544-4.447,20.723-6.459,29.293-12.25,2.221,5.624,10.234,8.289,17.709,6.524,2.044,1.786,1.852,4.868,2.13,7.989a78.417,78.417,0,0,1-.8,17.842,40,40,0,0,0,5.326-16.777c3.755,7.654,8.563,16.526,9.054,27.7a37.242,37.242,0,0,1-3.2,17.709,24.8,24.8,0,0,1-2.52,3.875c5.5-4.283,9.242-10.335,10.509-18.522a33.6,33.6,0,0,0,.287-7.832c-.132-1.331-.312-2.627-.532-3.9a48.523,48.523,0,0,0-8.276-18.363c-3.517-5.018-7.233-9.335-9.157-15.222l-.2-.03a16.72,16.72,0,0,1-8.485.606c.26-.2.525-.394.794-.579a1.021,1.021,0,0,1-.528.046,6.144,6.144,0,0,1-.932-4.128c.5-5.752,5.381-9.7,5.859-16.377.385-5.379-.885-10.927-2.4-15.712-.133,0-.159-.108-.266-.133-.008-.081-.02-.158-.133-.133v.4a19.85,19.85,0,0,1,.133,3.728,38.526,38.526,0,0,1-3.462,15.046c-2.358,4.953-6.713,9.11-6.258,14.913-.081-.015-.158-.035-.233-.057a9.827,9.827,0,0,0,.633,1.389,6.128,6.128,0,0,1-3.861-5.459c-13.206,8.809-33.153,12.029-47.268,20.372a88.173,88.173,0,0,0-5.84,14.4C639.476,461.8,643.131,458.876,646.669,456.173Z" transform="translate(-616.505 -341.797)" fill="#b4d9ee"/>
      <path id="Path_889" data-name="Path 889" d="M773.844,361.3a54.365,54.365,0,0,0-15.111-2.242c-4,.022-8.062.393-11.185,1.731,1.065.816,2.157,1.6,3.26,2.381.937-.345,1.868-.714,2.6-.917C758.872,360.744,766.941,361.181,773.844,361.3Z" transform="translate(-708.33 -307.267)" fill="#faef92"/>
      <path id="Path_890" data-name="Path 890" d="M862.949,338.623c3.191.866,6.567,1.756,9.8,2.7,1.568.046,3.237.044,4.978-.035.622-.028,1.306-.054,1.964-.1q-.457-1.74-.9-3.5A111.5,111.5,0,0,0,862.949,338.623Z" transform="translate(-804.158 -289.49)" fill="#8abb2a"/>
      <path id="Path_891" data-name="Path 891" d="M1207.895,433.072a57.972,57.972,0,0,0,1.864,8.388c1.36-8.209.1-16.98-1.331-23.834a84.783,84.783,0,0,0-2.8-10.918c-1.173-3.3-3.049-6.317-4.128-9.587-.228-.692-.415-1.394-.582-2.1a54.844,54.844,0,0,0-3.546-4.957c-.007-.14-.171-.1-.133.133a49.82,49.82,0,0,1-1.47,11.252c2.1,4.233,4.369,8.6,6.263,13.247C1204.336,420.342,1206.895,426.477,1207.895,433.072Z" transform="translate(-1080.532 -332.943)" fill="#8abb2a"/>
      <path id="Path_892" data-name="Path 892" d="M1232.7,396.747c6.822,10.863,12.143,25.779,13.807,42.373.067-10.288-2.443-20.748-4.62-28.525A112.109,112.109,0,0,1,1257.066,454c2.149-6.539,1.317-15.688-.133-22.5a67.6,67.6,0,0,0-1.791-6.7A69.648,69.648,0,0,0,1232.7,396.747Z" transform="translate(-1111.196 -338.56)" fill="#37c0f4"/>
      <path id="Path_893" data-name="Path 893" d="M1073.882,398.195c.816-2.354,1.838-5.184,1.731-7.456-.135-2.843-1.615-5.683-2.53-8.122-.941,7.948-1.916,14.107-5.193,19.174-3.073,4.753-7.371,8.363-10.252,13.581,3.863-1.158,5.993-3.566,8.788-6.258C1069.794,405.869,1072.229,402.965,1073.882,398.195Z" transform="translate(-965.826 -326.826)" fill="#fff"/>
      <path id="Path_894" data-name="Path 894" d="M556,490.393a39.5,39.5,0,0,1,6.154-4.583c.347-1.111.448-2.6.77-3.806a76.884,76.884,0,0,1,2.8-8.389c.181-.462.445-.943.666-1.43q-1.141-.949-2.284-1.9l-.113.13c.03-.053.056-.106.079-.159l-.612-.507C559.49,475.153,556.882,481.91,556,490.393Z" transform="translate(-549.271 -399.185)" fill="#faef92"/>
      <path id="Path_895" data-name="Path 895" d="M1281.114,843.679a42.4,42.4,0,0,0,3.462-8.389c.665-3.028.463-6.666.666-10.119a74.268,74.268,0,0,0,.133-10.785,42.213,42.213,0,0,1-2.861,6.893c-1.035,5.613-1.36,12.161-3,17.074a40.383,40.383,0,0,1-3.329,6.391c-1.2,2.148-2.353,4.324-3.6,6.258-2.428,3.781-5.324,7.357-7.589,12.117a124.54,124.54,0,0,0-5.459,14.247c-.212.631-.415,1.258-.61,1.883a134.109,134.109,0,0,1,8.333-14C1271.956,858.217,1277.176,851.511,1281.114,843.679Z" transform="translate(-1132.98 -685.364)" fill="#ea79ad"/>
      <path id="Path_896" data-name="Path 896" d="M1255.615,1236.672q.334-1.125.679-2.231A18.436,18.436,0,0,0,1255.615,1236.672Z" transform="translate(-1130.224 -1034.173)" fill="#e0007a"/>
      <path id="Path_897" data-name="Path 897" d="M591.479,862.148a5.8,5.8,0,0,1-.266-4.394c.8,1.948,1.906,4.307,3.861,4.66a7.255,7.255,0,0,1-.533-3.995c.551-5.909,4.842-11.2,9.986-12.25a9.183,9.183,0,0,0-7.323-1.864c-3.608.5-5.6,3.842-6.658,6.657-.407-5.592-.353-11.156-.55-16.741q-.19.581-.382,1.163c-2.816,8.507-6.367,17.375-5.726,27.7a18.384,18.384,0,0,0,3.821,10.115,23.85,23.85,0,0,0,1.638-3.591A31.768,31.768,0,0,0,591.479,862.148Z" transform="translate(-572.367 -701.835)" fill="#fff"/>
      <path id="Path_898" data-name="Path 898" d="M1094.229,933.566c1.065-6.415,5.014-11.038,8.122-15.845,5.625-8.7,12.791-15.943,17.375-25.488,1.406-5.146,2.838-11,2.332-18.185a81.8,81.8,0,0,1-5.992,17.043,59.047,59.047,0,0,1-9.187,13.581c-4.659,5.3-9.725,11.167-12.624,18.688A55.4,55.4,0,0,0,1094.229,933.566Z" transform="translate(-996.026 -734.906)" fill="#8abb2a"/>
      <path id="Path_899" data-name="Path 899" d="M1362.494,1004.213c.283-2.014.551-4.02.794-6.019-.007-.081-.02-.158-.133-.133a44.208,44.208,0,0,1-3.59,6.184,53.655,53.655,0,0,0-4.4,10.859A53.277,53.277,0,0,0,1362.494,1004.213Z" transform="translate(-1212.89 -837.882)" fill="#960065"/>
      <path id="Path_900" data-name="Path 900" d="M745.646,1198.38c-.012.057-.072.067-.135.073l.135-.073a.143.143,0,0,0,0-.06c5.14-20.36,21.549-29.545,29.559-46.736.231-.5.476-1,.718-1.518-5.767,5.3-11.9,10.218-17.628,15.632-8.782,8.3-17.664,18.051-20.816,32.338q-.112.539-.221,1.083c-.017.087-.037.172-.056.258a54.121,54.121,0,0,0-.876,12.391c.792-.179.937-1.083,1.331-1.6,3.294-4.3,7.972-7.3,12.516-10.253a148.368,148.368,0,0,1,19.508-10.622,33.068,33.068,0,0,0,7.655-11.481C767.024,1184.3,756.606,1192.529,745.646,1198.38Z" transform="translate(-698.97 -964.109)" fill="#fff"/>
      <path id="Path_901" data-name="Path 901" d="M556.714,598.138c2.246-5.556,7.02-9.275,12.117-12.117,5.9-3.29,12.626-5.749,19.471-8.07-13.982.742-22.971,7.092-30.922,13.4,2.32-5.4,6.019-9.427,9.72-13.448-.189-.727.883-.885.533-1.332-3.319,1.874-6.732,4.364-10.386,5.459.133-.116.687-.837.4-.533-.573.245.327-.949.266-1.465,4.61-5.243,10.132-9.574,15.845-13.714-8.2.9-16.089,5.59-21.227,10.709,0,1.468.236,3.129.322,4.6A49.862,49.862,0,0,0,556.714,598.138Z" transform="translate(-546.389 -479.368)" fill="#e83749"/>
      <path id="Path_902" data-name="Path 902" d="M665.12,991.014c.339.46.591,1.007,1.2,1.2C666.127,991.69,665.421,990.984,665.12,991.014Z" transform="translate(-639.883 -832.033)" fill="#e0007a"/>
      <path id="Path_903" data-name="Path 903" d="M983.023,151.13c1.23,4.741,2.047,9.867,3.728,14.513.391,1.079.881,2.208,1.2,3.329.977,3.447.895,7.884,3.728,9.853.051-.1.1-.192.14-.289-.159-1.188-.342-2.377-.539-3.572-1.719-10.414-5.1-20.3-6.066-30.638a5.816,5.816,0,0,1-.193-.919,15.82,15.82,0,0,1-.022-3.2,22.013,22.013,0,0,1,.761-5.23c.122-.7.273-1.4.454-2.081a20.542,20.542,0,0,1-1.726-3.741c-.007-.081-.02-.158-.133-.133-2.784,4.187-4.059,8.4-4.66,14.247-.034.333-.064.666-.091,1-.028.73-.042,1.464-.042,2.2a33.137,33.137,0,0,1,.133,4.394,2.234,2.234,0,0,1-.206.622c.5,11.9,3.964,23.639,3.276,34.565a6.787,6.787,0,0,0,.924-2.964C985.456,173.232,982.962,161.407,983.023,151.13Z" transform="translate(-900.931 -116.245)" fill="#fff"/>
      <path id="Path_904" data-name="Path 904" d="M561.532,333.923a3.11,3.11,0,0,0-1.332.4c-.965,3.185.911,6.2,2.4,8.655,3.769,6.219,8.619,11.075,13.848,15.978.921.864,2.435,2.51,3.329,2.663a7.18,7.18,0,0,0,2.673-.178c-.371-.856-1.232-1.267-2.274-2.085a84.471,84.471,0,0,1-7.456-6.524c-4.457-4.457-9.038-8.511-10.386-14.913,1.335.219,2.425.682,3.728.932,2.558,1.671,6.028,2.7,9.187,4.394,6.359,3.4,11.925,7.612,17.709,11.717.386.274.885.655,1.408,1.02a29.043,29.043,0,0,0,5.288-5.293,2.965,2.965,0,0,1-.611-.6,114.937,114.937,0,0,0-10.435-6.265.629.629,0,0,0-.044.084,1.547,1.547,0,0,0-.144-.184c-2-1.051-4.085-2.065-6.247-3.011C575.753,337.9,568.688,334.576,561.532,333.923Z" transform="translate(-552.539 -286.389)" fill="#ffc528"/>
      <path id="Path_905" data-name="Path 905" d="M811.211,386.12c-.346-2.021-3.308-4.779-4.793-5.859-.614,7.864-3.775,13.18-7.057,18.375,2.7-1.205,5.995-2.2,8.122-3.994C809.48,392.952,811.769,389.376,811.211,386.12Z" transform="translate(-751.355 -324.871)" fill="#faef92"/>
      <path id="Path_906" data-name="Path 906" d="M760.175,667.623a4.531,4.531,0,0,0-3.209-.985c-9.477,1.616-13.233,9.711-14.247,20.106-.21,2.154-.278,4-.666,6.125a14.306,14.306,0,0,0,4.927-4.793,23.985,23.985,0,0,0,3.462-6.524c1.086-3.929,1.073-7.166,3.2-9.454a7.119,7.119,0,0,1,2.3-1.544A9.284,9.284,0,0,1,760.175,667.623Z" transform="translate(-703.767 -562.647)" fill="#fff"/>
      <path id="Path_907" data-name="Path 907" d="M881.96,858.615c-1.165.979-2.936,4.8-2.663,6.524.116.731.624.858.932,1.6,2.287-4.326,7.592-5.634,13.581-6.258C891.8,857.144,885.8,855.385,881.96,858.615Z" transform="translate(-817.71 -720.672)" fill="#fff"/>
      <g id="Group_1381" data-name="Group 1381" transform="translate(0 0)">
        <path id="Path_908" data-name="Path 908" d="M1012.774,162.807c.736,1.273.369,3.188.932,4.793.377,1.075,2.075,2.485,2.93,3.462a127.035,127.035,0,0,1,8.522,10.386c3.425,4.905,6.537,10.356,7.057,18.108a34.623,34.623,0,0,1-5.725,21.57,51.169,51.169,0,0,1-13.049,14.114c7.167-11.541,6.532-21.692,4.793-32.222-1.866-11.3-5.694-21.981-6.258-33.288A21.671,21.671,0,0,1,1012.774,162.807Zm6.658,34.885c1.737,8.495,3.611,18.261,1.2,27.429.567.1.709-.636.932-.932,5.029-6.68,10.678-15.863,7.989-27.962-2.377-10.7-9.258-17.819-15.179-24.633,0-.074-.108-.151-.133,0C1015.266,180.246,1017.634,188.9,1019.432,197.692Z" transform="translate(-927.886 -144.299)" fill-rule="evenodd"/>
        <path id="Path_909" data-name="Path 909" d="M793.238,673.615a13.853,13.853,0,0,1-3.2-1.2c.337,2.925,1.738,6.323.932,9.321-1.783,6.634-10.776,9.309-16.777,12.25-2.287,1.121-4.565,2.68-7.057,2.264-.083-.534.622-.677.932-.932a15.773,15.773,0,0,0,5.992-11.85c.06-1.053-.042-1.971,0-2.929.284-6.452,3.3-11.014,9.587-11.717C788.036,668.331,792.3,670.552,793.238,673.615Zm-16.511,5.193c-.531,3.65.022,8.289-1.331,11.717,5.654-2.813,13.659-4.526,12.915-13.448a10.889,10.889,0,0,0-2.264-5.725C781.133,671.466,777.354,674.5,776.728,678.808Z" transform="translate(-724.595 -564.432)" fill-rule="evenodd"/>
        <path id="Path_910" data-name="Path 910" d="M883.184,841.565c-5.892-.442-9.946-4.708-16.378-3.995a11.165,11.165,0,0,0-7.723,4.394c-1.829,2.889-1.853,7.177-2.263,11.717-2.682-4-1.1-11.609,1.065-14.38C863.594,831.992,879.08,836.281,883.184,841.565Z" transform="translate(-797.896 -702.823)" fill-rule="evenodd"/>
        <path id="Path_911" data-name="Path 911" d="M671.189,934.183c2.655-.585,4.8-2.387,6.658-3.329-.553,2.973-2.358,4.253-4.793,5.326-3.491,1.538-8.428,1.666-8.921-2.8-.48-4.346,3.286-10.254,7.856-9.454a3.555,3.555,0,0,1,2,2.263C674.708,929.76,672.335,931.961,671.189,934.183Z" transform="translate(-639.029 -776.268)" fill-rule="evenodd"/>
        <path id="Path_912" data-name="Path 912" d="M527.448,185.9c-6.178-8.043-10.274-15.634-11.051-32.089-.644-13.639,3.1-25.8,9.187-33.554a64.3,64.3,0,0,1-5.326-7.856c-2.919-5.183-5.21-13.489,1.2-16.644,4.365-2.149,10.841.068,15.179,1.6,4.935,1.74,9.1,3.672,13.049,5.459,10.866-4.669,24.029-7.04,39.279-7.323-.983-9.3-.477-18.86,2-25.7a33.993,33.993,0,0,1,5.193-9.054,30.907,30.907,0,0,1,6.924-7.057c1.444,11.781,2.77,13.826,10.785,20.505,8.591,7.159,15.87,14.271,18.907,27.163,12.48,5.957,21.4,15.5,28.494,27.029,6.988,11.352,11.929,25.481,13.581,41.809.8,7.864.4,15.91.133,23.7-.266,7.682-1.1,15.243-2,22.369-1.84,14.644-5.011,28.327-5.06,43.54-.024,7.408.8,15.095,3.2,20.771,2.415,5.721,4.688,11.121,7.323,16.377-19.668-3.421-27.739-14.262-33.953-19.573,1.134,4.37,2.82,8.187,4.261,12.25-8.689-3.133-16.765-6.4-23.3-16.644A180.759,180.759,0,0,0,582.839,287.9c-12.7,6.387-23.969,14.4-31.557,25.964-1.291-3.828-3.068-6.7-3.728-10.652-1.551-9.291.8-17.912,3.329-24.766,2.632-7.127,6.725-12.8,10.918-17.842,9.2-11.05,20.416-19.062,29.826-28.228.025-.108.134-.133.133-.266-12.982,5.129-29.222,12.046-42.874,9.32-9.95-1.987-17.476-5.877-22.5-13.049a24.952,24.952,0,0,1-4.926-12.915C520.7,203.568,524.526,195.065,527.448,185.9Zm67.64-105.188c-1.809,17.589,6.337,35.144,1.731,50.6a46.364,46.364,0,0,1-1.731,4.66c-.676,1.571-1.709,2.716-2.13,4.128a10.131,10.131,0,0,0,.8,7.856A6.128,6.128,0,0,1,589.9,142.5c-13.206,8.809-33.153,12.029-47.268,20.372-3.857,7.12-6.191,15.714-9.054,24.366-2.816,8.507-6.367,17.375-5.726,27.7.412,6.638,4.2,11.458,8.522,14.78a32.618,32.618,0,0,0,17.31,5.992c8.37.464,14.367-2.173,20.9-3.861,3.975-4.833,5.4-12.566,6.258-20.638.288-2.724.382-5.684,1.2-7.856,2.752-7.324,15.769-7.3,21.837-2.929,5.025,3.616,5.874,9.686,4.66,16.91,9.766-4.056,16.572-11.387,18.375-23.035,1.921-12.412-3.53-22.971-8.522-30.092-3.535-5.043-7.271-9.378-9.187-15.312a16.725,16.725,0,0,1-8.655.666C604,146.866,608.37,145.841,612,143.7a30.789,30.789,0,0,0,9.187-8.255,35.331,35.331,0,0,0,6.657-27.3c-1.53-9.946-5.687-17.659-11.451-23.3-5.838-5.715-13.542-9.621-16.511-18.242-.007-.081-.02-.158-.133-.133C596.965,70.655,595.69,74.872,595.088,80.716Zm-49.132,27.3c-6.417-2.809-13.482-6.138-20.638-6.791a3.109,3.109,0,0,0-1.332.4c-.965,3.185.911,6.2,2.4,8.655,3.769,6.219,8.619,11.075,13.847,15.978.921.864,2.435,2.51,3.329,2.663,1.93.332,4.7-.762,6.391-1.331a27.817,27.817,0,0,0,13.581-9.72A109.121,109.121,0,0,0,545.956,108.011Zm29.16-5.193c5.864,1.592,12.358,3.265,17.443,5.193-.546-2.028-1.083-4.065-1.6-6.125A111.5,111.5,0,0,0,575.116,102.818Zm-34.885,29.692c-3.155-2.837-6.445-5.538-9.72-8.255-3.967,5.4-6.574,12.155-7.456,20.638a39.831,39.831,0,0,1,14.913-8.522c6.025-1.937,12.921-2.226,20.505-3.2,9.963-1.273,20.622-3.366,28.494-7.057,1.519-.712,6.9-3.033,7.323-4.527.35-1.24-.278-3.383-.4-4.794-.155-1.791-.419-3.4-.533-4.793-6.975-3.149-16.577-6.578-26.63-6.524-4,.022-8.062.393-11.185,1.731,3.317,2.542,6.9,4.822,10.253,7.323a11.592,11.592,0,0,1,1.2-2.929c2.128,4.432-1.522,9.416-3.994,12.117-6.018,6.573-17.557,10.432-28.361,10.652C536.582,133.834,538.307,133.073,540.231,132.511ZM622.65,236.5c6.3-9.743,14.535-17.657,18.908-29.027a113.966,113.966,0,0,0,5.459-18.641c2.8-13.943,2.4-30.072.133-43.94-2.244-13.745-6.95-25.351-13.981-34.086-.007-.14-.171-.1-.133.133-.3,14.167-5.632,23.306-12.25,31.157A132.983,132.983,0,0,1,628.11,161c2.106,6.657,4.156,14.124,4.128,22.1a52.506,52.506,0,0,1-3.6,18.242c-1.98,5.38-4.119,10.588-6.391,15.579-4.636,10.182-8.991,21.091-7.723,35.418C615.594,245.93,619.542,241.307,622.65,236.5Zm28.627-57.521c-1.909,14.457-5.2,28.422-10.785,38.747.5.2.7-.439.932-.666a131.612,131.612,0,0,0,15.445-17.975,81.642,81.642,0,0,0,6.924-10.918c1.932-3.757,4.495-8.442,4.793-13.049.209-3.231-.53-7.307-1.065-10.652-3.738-23.339-14.372-41.57-29.693-52.594C647.919,127.938,654.726,152.866,651.278,178.98Zm-94.536-43.274c-10.9,1.324-19.238,2.091-27.828,7.989-1.467,1.007-5.84,4.047-6.258,5.726-.44,1.77.006,4.351.133,6.524a49.862,49.862,0,0,0,3.861,16.511c2.246-5.556,7.02-9.275,12.117-12.117,15.725-8.767,37.3-11.632,51.4-21.7,1.145-4.669,4.593-7.745,3.994-13.714C585.513,131.365,571.531,133.91,556.741,135.706Zm-28.894,39.546a27.36,27.36,0,0,0,3.462,4.926c1.707-5.217,4.069-10.489,5.859-15.179A26.857,26.857,0,0,0,527.848,175.252Zm131.952,24.1a151.519,151.519,0,0,1-23.967,26.5,50.243,50.243,0,0,0-6.125,6.524c-1.808,2.314-4.06,5.419-4.794,7.856-1.094,3.636-.865,8.021-.4,11.85,1.289,10.616,5.894,18.658,11.983,24.233.546.5,1.343,1.214,1.731,1.065a20.692,20.692,0,0,1-1.864-10.785c.456-6.688,2.831-12.753,5.459-18.108a130.559,130.559,0,0,1,8.788-14.913c4.69-7.032,9.909-13.738,13.847-21.57a42.4,42.4,0,0,0,3.462-8.389c.665-3.028.463-6.666.666-10.119a74.294,74.294,0,0,0,.133-10.785C666.852,188.786,663.3,194.355,659.8,199.352Zm-66.575,11.717c.148-.965,1.848-1.733,2.663-2.4,1.1-.9,2.092-1.629,2.4-2.53a11.066,11.066,0,0,0-2.4-3.6c-.823-.892-2.108-2.527-3.329-2.663a9.233,9.233,0,0,0-4.926,1.332c-2.253,1.551-2.564,5.547-3.062,9.054-1.034,7.284-2.438,15.492-5.326,19.839a280.731,280.731,0,0,0,26.5-11.318c2.461-9.044-.733-17.878-9.054-18.641.931,1.85,4.3,3.767,3.862,6.657-.3,1.978-3.713,3.585-4.794,4.793.457,1.645,2.132,2.483,2,4.128-.1,1.186-1.588,2.071-2.264,3.062-1.335,1.958-2.081,4.874-3.6,5.592-.632-4.278,1.858-6.57,3.462-9.054C594.827,213.9,592.981,212.654,593.224,211.069ZM659.8,224.651c-5.819,8.37-12.189,16.244-16.244,26.364-.751,1.873-2.057,4.864-2,6.524.046,1.275,1.165,3.394,1.864,4.927a49.822,49.822,0,0,0,23.834,24.366c-5.277-8.667-6.362-22.227-5.326-35.817.979-12.843,3.341-25.06,4.793-37.016-.007-.081-.02-.158-.133-.133C664.842,217.663,662.326,221.017,659.8,224.651Zm-48.333-3.329c-1.3.7-2.912,1.1-3.728,1.864a17.59,17.59,0,0,0-1.6,2.4c-8.433,11.72-20.131,19.9-30.491,29.692-11.343,10.723-22.855,23.857-21.97,46.07.792-.179.937-1.083,1.331-1.6,3.294-4.3,7.972-7.3,12.516-10.253,15.693-10.192,34.591-17.834,55.523-22.5-2.1-5.131-3.044-11.426-3.462-18.242-1.483,4.686-2.533,9.805-4.66,13.847-4.224-4.85-5.6-12.989-4.927-21.7.646-8.381,3.109-15.306,5.326-21.7.074,0,.151-.108,0-.133C614.135,219.713,612.879,220.562,611.466,221.322Z" transform="translate(-516.325 -53.686)" fill-rule="evenodd"/>
      </g>
    </g>
    <path id="Path_916" data-name="Path 916" d="M-242.423-60.358a6.294,6.294,0,0,0-3.061-2.539,11.341,11.341,0,0,0-3.868-.641,3.135,3.135,0,0,0-2.231.617,2.97,2.97,0,0,0-.617,2.136v19.033a6.233,6.233,0,0,0,.949,3.607,7.82,7.82,0,0,0,2.207,2.183,8.413,8.413,0,0,0,2.492,1.115q1.234.309,1.8.4a1.179,1.179,0,0,1,.641.332.644.644,0,0,1,.19.5.723.723,0,0,1-.261.475,1.035,1.035,0,0,1-.712.214h-30.283a1.035,1.035,0,0,1-.712-.214.723.723,0,0,1-.261-.475.645.645,0,0,1,.19-.5,1.179,1.179,0,0,1,.641-.332q.57-.095,1.8-.4a8.413,8.413,0,0,0,2.492-1.115,7.82,7.82,0,0,0,2.207-2.183,6.233,6.233,0,0,0,.949-3.607V-90.119a1.939,1.939,0,0,0-.736-1.732,2.709,2.709,0,0,0-1.543-.5,11.04,11.04,0,0,0-4.533,1.139,24.125,24.125,0,0,0-5.055,3.2,36.913,36.913,0,0,0-5.008,4.96,37.226,37.226,0,0,0-4.343,6.431,38.306,38.306,0,0,0-3.061,7.594A30.434,30.434,0,0,0-293.3-60.6a25.729,25.729,0,0,0,.736,6.5,25.8,25.8,0,0,0,1.661,4.7,16.312,16.312,0,0,0,1.756,2.943q.831,1.044,1.068,1.282a.84.84,0,0,1,.237.878q-.142.5-.949.5-.285,0-1.875-.166a23.9,23.9,0,0,1-3.868-.807,26.673,26.673,0,0,1-4.841-1.946,17.482,17.482,0,0,1-4.746-3.607,18.814,18.814,0,0,1-3.631-5.767,21.919,21.919,0,0,1-1.448-8.449,22.827,22.827,0,0,1,4.224-13.171,36.718,36.718,0,0,1,12.1-10.727,70.079,70.079,0,0,1,19.1-7.238,109.754,109.754,0,0,1,25.228-2.658q2.706,0,5.743.261a45.859,45.859,0,0,1,6.028.926,30.873,30.873,0,0,1,5.743,1.875,19.317,19.317,0,0,1,4.936,3.109,12.829,12.829,0,0,1,2.872,3.726,16.567,16.567,0,0,1,1.566,4.533,16.5,16.5,0,0,1,.19,4.841,14.383,14.383,0,0,1-1.258,4.6,14.631,14.631,0,0,1-4.462,5.862,19.967,19.967,0,0,1-6.6,3.156q-.38.095-.427.285t.285.285a13.41,13.41,0,0,1,6.36,2.943A25.884,25.884,0,0,1-222.7-56.4a57.344,57.344,0,0,1,4.035,7.215q1.875,3.963,3.8,8t4.153,7.832a33.4,33.4,0,0,0,5.174,6.74,25.967,25.967,0,0,0,5.625,4.343,32.034,32.034,0,0,0,5.482,2.492,27.861,27.861,0,0,0,4.39,1.139q1.827.285,2.3.332a1.066,1.066,0,0,1,.712.309.831.831,0,0,1,.237.57.794.794,0,0,1-.261.57,1.3,1.3,0,0,1-.831.309q-1.661.19-2.848.214t-2.563.024a46.331,46.331,0,0,1-19.627-3.916,41.188,41.188,0,0,1-14.548-11.225,46.541,46.541,0,0,1-5.672-8.306,83.793,83.793,0,0,1-3.512-7.642q-1.448-3.655-2.658-6.906A28.387,28.387,0,0,0-242.423-60.358Zm-8.686-5.933q1.234,0,2.729-.095a13.234,13.234,0,0,0,2.99-.546,10.257,10.257,0,0,0,2.9-1.424,8.772,8.772,0,0,0,2.468-2.753,15.813,15.813,0,0,0,1.709-4.485,29.336,29.336,0,0,0,.641-6.645,26.394,26.394,0,0,0-.522-5.72,10.569,10.569,0,0,0-1.5-3.7,5.659,5.659,0,0,0-2.373-2.017,7.749,7.749,0,0,0-3.156-.617,9.455,9.455,0,0,0-2.848.4,5.463,5.463,0,0,0-2.207,1.305,5.95,5.95,0,0,0-1.424,2.278,9.96,9.96,0,0,0-.5,3.37v19.6Q-252.2-66.292-251.109-66.292Zm80.738,29a1.039,1.039,0,0,1,1.044.261.874.874,0,0,1,.047,1.068,6.887,6.887,0,0,1-.926,1.234,6.962,6.962,0,0,1-1.709,1.329,11.207,11.207,0,0,1-2.611,1.044,13.694,13.694,0,0,1-3.631.427,9.426,9.426,0,0,1-4.865-1.163,6.738,6.738,0,0,1-2.729-2.682.507.507,0,0,0-.546-.332,1,1,0,0,0-.593.285q-.142.142-.878.783a11.9,11.9,0,0,1-2.088,1.376,18.2,18.2,0,0,1-3.251,1.329,14.65,14.65,0,0,1-4.367.593,18.633,18.633,0,0,1-7.1-1.187,13.312,13.312,0,0,1-4.652-3.061,11.25,11.25,0,0,1-2.563-4.224,14.713,14.713,0,0,1-.783-4.675,10.574,10.574,0,0,1,2.112-6.55,12.769,12.769,0,0,1,5.482-4.177,17.7,17.7,0,0,1,3.773-1.02q1.97-.309,3.916-.641t3.821-.831a11.4,11.4,0,0,0,3.536-1.638,6.242,6.242,0,0,0,2.444-3.038,11.213,11.213,0,0,0,.688-3.94,10.491,10.491,0,0,0-.4-2.919,8.1,8.1,0,0,0-1.139-2.444,6.075,6.075,0,0,0-1.709-1.661,3.869,3.869,0,0,0-2.112-.617,3.856,3.856,0,0,0-2.99,1.044,7.643,7.643,0,0,0-1.5,2.516q-.546,1.471-1.021,3.061a6.891,6.891,0,0,1-1.519,2.729,5.27,5.27,0,0,1-2.207,1.353,8.176,8.176,0,0,1-2.587.451,5.736,5.736,0,0,1-2.278-.427,5.194,5.194,0,0,1-1.709-1.163,4.8,4.8,0,0,1-1.068-1.709,5.962,5.962,0,0,1-.356-2.065,6.705,6.705,0,0,1,.712-2.943,6.822,6.822,0,0,1,2.539-2.658,15.811,15.811,0,0,1,4.913-1.922,34.6,34.6,0,0,1,7.832-.736,32.976,32.976,0,0,1,8.995,1.068,15.733,15.733,0,0,1,6.075,3.109A11.787,11.787,0,0,1-174.9-67.6a20.466,20.466,0,0,1,1.068,6.859q0,4.6-.285,8.639t-.4,7.143a34.152,34.152,0,0,0,.119,5.126q.237,2.017,1.329,2.492a2.454,2.454,0,0,0,1.187.214A10.844,10.844,0,0,0-170.371-37.291Zm-16.47-21.217a.369.369,0,0,0-.237-.38.347.347,0,0,0-.427.142q-.38.427-.688.807t-.831.9q-.9.949-1.851,1.78t-1.9,1.685q-.949.759-1.875,1.519a15.6,15.6,0,0,0-1.732,1.661,9.581,9.581,0,0,0-1.827,3.109A10.711,10.711,0,0,0-198.8-43.7a9.227,9.227,0,0,0,.38,2.587,6.984,6.984,0,0,0,1.163,2.326,6.026,6.026,0,0,0,1.994,1.661,6.166,6.166,0,0,0,2.919.641,4.919,4.919,0,0,0,2.777-.712,5.334,5.334,0,0,0,1.661-1.709,7.075,7.075,0,0,0,.831-2.017,7.535,7.535,0,0,0,.237-1.59Zm39.3,18.132a5.519,5.519,0,0,0,.759,3.061,6.116,6.116,0,0,0,1.732,1.8,6.871,6.871,0,0,0,1.9.9,10.427,10.427,0,0,0,1.305.309.96.96,0,0,1,.546.309.537.537,0,0,1,.119.451.772.772,0,0,1-.261.427.862.862,0,0,1-.593.19h-23.827a.862.862,0,0,1-.593-.19.772.772,0,0,1-.261-.427.537.537,0,0,1,.119-.451.96.96,0,0,1,.546-.309,10.428,10.428,0,0,0,1.305-.309,6.871,6.871,0,0,0,1.9-.9,6.116,6.116,0,0,0,1.732-1.8,5.519,5.519,0,0,0,.759-3.061v-26.39a.7.7,0,0,0-.57-.759,5.559,5.559,0,0,1-.688-.142q-.593-.142-1.353-.332t-1.4-.332q-.641-.142-.783-.19-.617-.142-.641-.641t.688-.688a41.385,41.385,0,0,0,4.011-1.163q2.16-.736,4.343-1.661t4.224-1.994a37.863,37.863,0,0,0,3.655-2.16,1.3,1.3,0,0,1,.878-.237q.451.047.451.712Zm.949-50.5a7.275,7.275,0,0,1-.617,2.967,7.311,7.311,0,0,1-1.709,2.421,8.646,8.646,0,0,1-2.539,1.638,7.966,7.966,0,0,1-3.156.617,7.767,7.767,0,0,1-3.061-.593,7.752,7.752,0,0,1-2.421-1.59,7.036,7.036,0,0,1-1.59-2.373,7.62,7.62,0,0,1-.57-2.943,7.275,7.275,0,0,1,.617-2.967,7.759,7.759,0,0,1,1.685-2.444,8.031,8.031,0,0,1,2.539-1.661,8.018,8.018,0,0,1,3.133-.617,7.891,7.891,0,0,1,3.109.593,7.546,7.546,0,0,1,2.421,1.614,7.3,7.3,0,0,1,1.59,2.4A7.62,7.62,0,0,1-146.591-90.878ZM-86.548-34.3a.96.96,0,0,1,.546.309.537.537,0,0,1,.119.451.772.772,0,0,1-.261.427.862.862,0,0,1-.593.19h-23.827a.862.862,0,0,1-.593-.19.772.772,0,0,1-.261-.427.537.537,0,0,1,.119-.451.96.96,0,0,1,.546-.309,10.428,10.428,0,0,0,1.305-.309,6.871,6.871,0,0,0,1.9-.9,6.116,6.116,0,0,0,1.732-1.8,5.519,5.519,0,0,0,.759-3.061V-60.833q-.047-1.994-.309-4.106a12.33,12.33,0,0,0-1.092-3.845,7.263,7.263,0,0,0-2.421-2.848,7.263,7.263,0,0,0-4.248-1.115,7.226,7.226,0,0,0-4.272,1.092,6.742,6.742,0,0,0-2.255,2.705,10.532,10.532,0,0,0-.9,3.441q-.166,1.827-.166,3.251v21.881a5.519,5.519,0,0,0,.759,3.061,6.116,6.116,0,0,0,1.732,1.8,6.871,6.871,0,0,0,1.9.9,10.428,10.428,0,0,0,1.305.309.96.96,0,0,1,.546.309.537.537,0,0,1,.119.451.772.772,0,0,1-.261.427.862.862,0,0,1-.593.19h-23.827a.862.862,0,0,1-.593-.19.772.772,0,0,1-.261-.427.537.537,0,0,1,.119-.451.96.96,0,0,1,.546-.309,10.428,10.428,0,0,0,1.305-.309,6.871,6.871,0,0,0,1.9-.9,6.116,6.116,0,0,0,1.732-1.8,5.519,5.519,0,0,0,.759-3.061v-26.39a.7.7,0,0,0-.57-.759,5.56,5.56,0,0,1-.688-.142q-.593-.142-1.353-.332t-1.4-.332q-.641-.142-.783-.19-.617-.142-.641-.641t.688-.688a41.383,41.383,0,0,0,4.011-1.163q2.16-.736,4.343-1.661t4.224-1.994a37.863,37.863,0,0,0,3.655-2.16,1.3,1.3,0,0,1,.878-.237q.451.047.451.712v4.082A17.893,17.893,0,0,1-118.445-74a15.717,15.717,0,0,1,2.872-1.448,20.656,20.656,0,0,1,3.56-1,23,23,0,0,1,4.343-.38,21.407,21.407,0,0,1,6.526.854A13.231,13.231,0,0,1-96.777-73.7a10.039,10.039,0,0,1,2.658,3.275,15.39,15.39,0,0,1,1.329,3.845,24.4,24.4,0,0,1,.475,3.963q.071,1.97.071,3.679v18.559a5.519,5.519,0,0,0,.759,3.061,6.116,6.116,0,0,0,1.732,1.8,6.871,6.871,0,0,0,1.9.9A10.428,10.428,0,0,0-86.548-34.3Zm34.222-42.528a20.111,20.111,0,0,1,6.645,1,15.814,15.814,0,0,1,4.913,2.705,15.919,15.919,0,0,1,3.417,3.892,20.967,20.967,0,0,1,2.136,4.6,26.653,26.653,0,0,1,1.092,4.841,36.135,36.135,0,0,1,.309,4.557,33.421,33.421,0,0,1-1.305,9.683,20.269,20.269,0,0,1-3.94,7.4A17.3,17.3,0,0,1-45.681-33.4a24.057,24.057,0,0,1-9.3,1.661,32.369,32.369,0,0,1-5.269-.38,21.776,21.776,0,0,1-4.153-1.092,17.035,17.035,0,0,1-3.465-1.78,30.924,30.924,0,0,1-3.2-2.492,1.123,1.123,0,0,0-.356-.19q-.166-.047-.4.19-.522.427-1.448,1.258t-1.97,1.827q-1.044,1-2.065,1.994t-1.638,1.709a.69.69,0,0,1-.807.261.741.741,0,0,1-.427-.783V-77.351q0-3.465.024-6.408t.024-5.126v-4.652a.7.7,0,0,0-.57-.759,4.865,4.865,0,0,1-.688-.166q-.593-.166-1.353-.332t-1.4-.332a4.856,4.856,0,0,0-.783-.166q-.617-.142-.641-.665t.688-.665a41.381,41.381,0,0,0,4.011-1.163q2.16-.736,4.343-1.661t4.224-1.994a37.862,37.862,0,0,0,3.655-2.16,1.3,1.3,0,0,1,.878-.237q.451.047.451.712v32.893a.425.425,0,0,0,.285.237q.19.047.332-.19.427-.522,1.424-1.638a13.315,13.315,0,0,1,2.729-2.231A18.554,18.554,0,0,1-58.283-76,19.2,19.2,0,0,1-52.326-76.829ZM-47.58-53q0-1.092-.024-2.848a33.638,33.638,0,0,0-.285-3.8,30.3,30.3,0,0,0-.831-4.129,13.006,13.006,0,0,0-1.661-3.75,9.043,9.043,0,0,0-2.8-2.729A7.826,7.826,0,0,0-57.4-71.323a9.862,9.862,0,0,0-5.174,1.187,8.757,8.757,0,0,0-2.99,2.9,10.261,10.261,0,0,0-1.376,3.631,20.212,20.212,0,0,0-.332,3.394V-47.4a22.871,22.871,0,0,0,.4,4.035,14.681,14.681,0,0,0,1.448,4.224A9.84,9.84,0,0,0-62.579-35.8a7.465,7.465,0,0,0,4.6,1.353,7.924,7.924,0,0,0,4.77-1.424,10.619,10.619,0,0,0,3.228-3.916,20.6,20.6,0,0,0,1.827-5.886A44.361,44.361,0,0,0-47.58-53ZM-5.811-76.829A22.9,22.9,0,0,1,3.184-75.1a21.292,21.292,0,0,1,7.049,4.746,21.8,21.8,0,0,1,4.6,7.1A22.944,22.944,0,0,1,16.5-54.52a21.814,21.814,0,0,1-1.8,8.828,23.15,23.15,0,0,1-4.936,7.238,23.268,23.268,0,0,1-7.381,4.913,23.134,23.134,0,0,1-9.137,1.8,22.9,22.9,0,0,1-8.995-1.732A21.293,21.293,0,0,1-22.8-38.216a21.866,21.866,0,0,1-4.6-7.072,22.891,22.891,0,0,1-1.661-8.757,21.865,21.865,0,0,1,1.8-8.8,23.074,23.074,0,0,1,4.936-7.262,23.268,23.268,0,0,1,7.381-4.913A23.134,23.134,0,0,1-5.811-76.829Zm-.475,42.576a5.631,5.631,0,0,0,3.963-1.566,11.911,11.911,0,0,0,2.8-4.3A28.535,28.535,0,0,0,2.163-46.5a50.576,50.576,0,0,0,.57-7.784,50.576,50.576,0,0,0-.57-7.784A28.535,28.535,0,0,0,.478-68.451a11.911,11.911,0,0,0-2.8-4.3,5.631,5.631,0,0,0-3.963-1.566,5.631,5.631,0,0,0-3.963,1.566,12.155,12.155,0,0,0-2.824,4.3,26.931,26.931,0,0,0-1.685,6.384,52.733,52.733,0,0,0-.546,7.784,52.733,52.733,0,0,0,.546,7.784,26.931,26.931,0,0,0,1.685,6.384,12.154,12.154,0,0,0,2.824,4.3A5.631,5.631,0,0,0-6.285-34.253ZM82.094-75.642a.791.791,0,0,1,.546.19A.779.779,0,0,1,82.9-75a.642.642,0,0,1-.119.5.9.9,0,0,1-.546.332,10.435,10.435,0,0,0-2.231.831A7.014,7.014,0,0,0,78.3-72.082a10.971,10.971,0,0,0-1.424,1.78q-.665,1.02-1.376,2.4-.285.522-1.115,2.35t-2.017,4.462Q71.177-58.46,69.753-55.3t-2.848,6.384q-3.37,7.547-7.547,16.8a.749.749,0,0,1-.688.427.764.764,0,0,1-.688-.38q-2.611-6.075-4.7-11.012-.9-2.088-1.78-4.129t-1.59-3.726q-.712-1.685-1.21-2.8t-.641-1.353q-.332-.57-.665,0-.142.237-.641,1.329L45.5-51.008q-.759,1.661-1.661,3.7t-1.851,4.129Q39.756-38.24,37.05-32.117a.749.749,0,0,1-.688.427.764.764,0,0,1-.688-.38q-3.94-9.256-7.215-16.8-1.376-3.228-2.753-6.384T23.19-61.047q-1.139-2.634-1.946-4.462t-1.092-2.4q-.712-1.376-1.376-2.4a10.97,10.97,0,0,0-1.424-1.78,7.014,7.014,0,0,0-1.709-1.258,10.435,10.435,0,0,0-2.231-.831.9.9,0,0,1-.546-.332.734.734,0,0,1-.142-.5.67.67,0,0,1,.237-.451.862.862,0,0,1,.593-.19H38.474a.883.883,0,0,1,.57.19.74.74,0,0,1,.285.451.776.776,0,0,1-.095.522.8.8,0,0,1-.57.356q-.712.19-1.732.5a5.708,5.708,0,0,0-1.851.949,3.641,3.641,0,0,0-1.21,1.709,4.5,4.5,0,0,0,.142,2.777q.237.759.831,2.326t1.376,3.489q.783,1.922,1.638,3.987t1.59,3.773q.736,1.709,1.234,2.872t.593,1.305q.332.617.665,0,.047-.095.5-1.115L43.6-54.188l1.614-3.655q.9-2.041,1.851-4.2t1.875-4.224q.926-2.065,1.685-3.75t1.258-2.8q.5-1.115.593-1.305a.941.941,0,0,1,.759-.593q.522-.071.854.593.142.285.617,1.448T55.87-69.8q.688,1.709,1.5,3.773t1.661,4.2l1.661,4.153q.807,2.017,1.424,3.607t1.02,2.587a10.483,10.483,0,0,0,.451,1.044q.332.617.665,0,.142-.332.641-1.566t1.187-2.99q.688-1.756,1.471-3.773t1.471-3.892q.688-1.875,1.234-3.37t.736-2.16a4.5,4.5,0,0,0,.142-2.777,3.791,3.791,0,0,0-1.163-1.709,5.256,5.256,0,0,0-1.756-.949q-.973-.309-1.685-.5a.8.8,0,0,1-.57-.356A.776.776,0,0,1,65.861-75a.779.779,0,0,1,.261-.451.862.862,0,0,1,.593-.19Z" transform="translate(475.961 166.768)" fill="#fff"/>
    <path id="Path_915" data-name="Path 915" d="M-187.027-57.589a51.992,51.992,0,0,1-1.212,11.783,21.8,21.8,0,0,1-4.049,8.752A17.992,17.992,0,0,1-199.8-31.6a31.285,31.285,0,0,1-11.662,1.891,40.749,40.749,0,0,1-11.419-1.406,18.564,18.564,0,0,1-7.831-4.364,17.554,17.554,0,0,1-4.485-7.516,36.672,36.672,0,0,1-1.43-10.91v-33.6a6.392,6.392,0,0,0-.97-3.661,7.584,7.584,0,0,0-2.255-2.231,9.512,9.512,0,0,0-2.546-1.139q-1.261-.339-1.843-.436a.938.938,0,0,1-.655-.315.732.732,0,0,1-.194-.533.738.738,0,0,1,.267-.485,1.057,1.057,0,0,1,.727-.218h30.936a1.057,1.057,0,0,1,.727.218.738.738,0,0,1,.267.485.732.732,0,0,1-.194.533.938.938,0,0,1-.655.315q-.582.1-1.843.436a9.512,9.512,0,0,0-2.546,1.139,7.584,7.584,0,0,0-2.255,2.231,6.392,6.392,0,0,0-.97,3.661v36.755q0,8.243,3.564,12.631t10.934,4.388a14.462,14.462,0,0,0,2.279-.194,17.8,17.8,0,0,0,2.4-.558,20.071,20.071,0,0,0,2.279-.849,10.909,10.909,0,0,0,1.964-1.115,10.922,10.922,0,0,0,3.515-4.025A20.118,20.118,0,0,0-191.9-45.66a34.264,34.264,0,0,0,.655-5.625q.1-2.861.1-5.334V-87.506a6.392,6.392,0,0,0-.97-3.661,7.584,7.584,0,0,0-2.255-2.231,9.512,9.512,0,0,0-2.546-1.139q-1.261-.339-1.843-.436a.939.939,0,0,1-.655-.315.732.732,0,0,1-.194-.533.738.738,0,0,1,.267-.485,1.058,1.058,0,0,1,.727-.218h19.056a1.057,1.057,0,0,1,.727.218.738.738,0,0,1,.267.485.732.732,0,0,1-.194.533.939.939,0,0,1-.655.315q-.582.1-1.843.436A9.512,9.512,0,0,0-183.8-93.4a7.584,7.584,0,0,0-2.255,2.231,6.392,6.392,0,0,0-.97,3.661Zm62.26,25.117a.981.981,0,0,1,.558.315.549.549,0,0,1,.121.461.789.789,0,0,1-.267.436.881.881,0,0,1-.606.194H-149.3a.881.881,0,0,1-.606-.194.789.789,0,0,1-.267-.436.549.549,0,0,1,.121-.461.981.981,0,0,1,.558-.315,10.653,10.653,0,0,0,1.333-.315,7.019,7.019,0,0,0,1.94-.921,6.248,6.248,0,0,0,1.77-1.843,5.638,5.638,0,0,0,.776-3.128v-20.9q-.049-2.037-.315-4.194a12.6,12.6,0,0,0-1.115-3.928,7.419,7.419,0,0,0-2.473-2.909,7.42,7.42,0,0,0-4.34-1.139,7.382,7.382,0,0,0-4.364,1.115,6.887,6.887,0,0,0-2.3,2.764,10.759,10.759,0,0,0-.921,3.515q-.17,1.867-.17,3.322v22.354a5.638,5.638,0,0,0,.776,3.128,6.248,6.248,0,0,0,1.77,1.843,7.019,7.019,0,0,0,1.94.921,10.653,10.653,0,0,0,1.333.315.981.981,0,0,1,.558.315.549.549,0,0,1,.121.461.789.789,0,0,1-.267.436.881.881,0,0,1-.606.194H-178.4a.881.881,0,0,1-.606-.194.789.789,0,0,1-.267-.436.549.549,0,0,1,.121-.461.981.981,0,0,1,.558-.315,10.654,10.654,0,0,0,1.333-.315,7.019,7.019,0,0,0,1.94-.921,6.248,6.248,0,0,0,1.77-1.843,5.638,5.638,0,0,0,.776-3.128v-26.96a.716.716,0,0,0-.582-.776,5.677,5.677,0,0,1-.7-.145q-.606-.145-1.382-.339t-1.43-.339q-.655-.145-.8-.194-.63-.145-.655-.655t.7-.7a42.276,42.276,0,0,0,4.1-1.188q2.206-.752,4.437-1.7t4.316-2.037a38.681,38.681,0,0,0,3.734-2.206,1.333,1.333,0,0,1,.9-.242q.461.049.461.727v4.17a18.279,18.279,0,0,1,2.327-1.77,16.057,16.057,0,0,1,2.934-1.479,21.1,21.1,0,0,1,3.637-1.018,23.494,23.494,0,0,1,4.437-.388,21.87,21.87,0,0,1,6.667.873,13.516,13.516,0,0,1,4.461,2.327,10.256,10.256,0,0,1,2.715,3.346,15.722,15.722,0,0,1,1.358,3.928,24.924,24.924,0,0,1,.485,4.049q.073,2.012.073,3.758v18.959a5.638,5.638,0,0,0,.776,3.128,6.248,6.248,0,0,0,1.77,1.843,7.019,7.019,0,0,0,1.94.921A10.653,10.653,0,0,0-124.767-32.471Zm21-6.207A5.638,5.638,0,0,0-103-35.55a6.248,6.248,0,0,0,1.77,1.843,7.019,7.019,0,0,0,1.94.921,10.653,10.653,0,0,0,1.333.315.981.981,0,0,1,.558.315.549.549,0,0,1,.121.461.789.789,0,0,1-.267.436.881.881,0,0,1-.606.194h-24.342a.881.881,0,0,1-.606-.194.789.789,0,0,1-.267-.436.549.549,0,0,1,.121-.461.981.981,0,0,1,.558-.315,10.653,10.653,0,0,0,1.333-.315,7.019,7.019,0,0,0,1.94-.921,6.248,6.248,0,0,0,1.77-1.843,5.638,5.638,0,0,0,.776-3.128v-26.96a.716.716,0,0,0-.582-.776,5.677,5.677,0,0,1-.7-.145q-.606-.145-1.382-.339t-1.43-.339q-.655-.145-.8-.194-.63-.145-.655-.655t.7-.7a42.275,42.275,0,0,0,4.1-1.188q2.206-.752,4.437-1.7t4.316-2.037a38.68,38.68,0,0,0,3.734-2.206,1.333,1.333,0,0,1,.9-.242q.461.049.461.727Zm.97-51.592a7.433,7.433,0,0,1-.63,3.031,7.468,7.468,0,0,1-1.746,2.473,8.832,8.832,0,0,1-2.594,1.673,8.138,8.138,0,0,1-3.225.63,7.935,7.935,0,0,1-3.128-.606,7.92,7.92,0,0,1-2.473-1.624,7.188,7.188,0,0,1-1.624-2.424,7.784,7.784,0,0,1-.582-3.006,7.432,7.432,0,0,1,.63-3.031,7.926,7.926,0,0,1,1.721-2.5,8.2,8.2,0,0,1,2.594-1.7,8.191,8.191,0,0,1,3.2-.63,8.062,8.062,0,0,1,3.176.606,7.708,7.708,0,0,1,2.473,1.649,7.454,7.454,0,0,1,1.624,2.449A7.784,7.784,0,0,1-102.8-90.27Zm29.869,17.02A5.493,5.493,0,0,0-76.5-71.917a10.817,10.817,0,0,0-2.788,3.758,23.3,23.3,0,0,0-1.794,5.843,41.692,41.692,0,0,0-.63,7.54,24.5,24.5,0,0,0,1.043,7.443,16.873,16.873,0,0,0,2.885,5.552,12.718,12.718,0,0,0,4.316,3.491,11.955,11.955,0,0,0,5.334,1.212,14.943,14.943,0,0,0,5.067-.824,25.2,25.2,0,0,0,4.073-1.843,22.607,22.607,0,0,0,2.909-1.94A9.305,9.305,0,0,1-54.506-42.8a.914.914,0,0,1,1.091.121q.412.412-.024,1.236-.291.533-.97,1.6a19.049,19.049,0,0,1-1.818,2.352,27.053,27.053,0,0,1-2.74,2.643,20.565,20.565,0,0,1-3.709,2.473,22.534,22.534,0,0,1-4.752,1.818,22.913,22.913,0,0,1-5.891.7,26.548,26.548,0,0,1-9.067-1.455,18.782,18.782,0,0,1-6.885-4.267,18.68,18.68,0,0,1-4.388-6.91,26.6,26.6,0,0,1-1.527-9.334,26.537,26.537,0,0,1,1.164-8.195,22.586,22.586,0,0,1,3.079-6.255,20.43,20.43,0,0,1,4.388-4.509,25.969,25.969,0,0,1,5.067-2.982,25.061,25.061,0,0,1,5.116-1.649,23.237,23.237,0,0,1,4.558-.509,28.314,28.314,0,0,1,6.061.606A17.775,17.775,0,0,1-61-73.614a9.57,9.57,0,0,1,3.1,2.57,5.176,5.176,0,0,1,1.115,3.176,5.606,5.606,0,0,1-.509,2.521A5.032,5.032,0,0,1-58.6-63.674a5.041,5.041,0,0,1-1.794.946,7.129,7.129,0,0,1-2.012.291,7.074,7.074,0,0,1-2.74-.533,4.6,4.6,0,0,1-2.109-1.794,7.726,7.726,0,0,1-1.018-2.376q-.388-1.455-.9-2.812a7.765,7.765,0,0,0-1.333-2.327A3,3,0,0,0-72.932-73.251Zm45.871-2.667a23.4,23.4,0,0,1,9.189,1.77,21.752,21.752,0,0,1,7.2,4.849,22.273,22.273,0,0,1,4.7,7.249,23.439,23.439,0,0,1,1.7,8.922,22.284,22.284,0,0,1-1.843,9.019,23.65,23.65,0,0,1-5.043,7.395A23.77,23.77,0,0,1-18.7-31.7a23.634,23.634,0,0,1-9.334,1.843,23.4,23.4,0,0,1-9.189-1.77,21.752,21.752,0,0,1-7.2-4.849,22.338,22.338,0,0,1-4.7-7.225,23.385,23.385,0,0,1-1.7-8.946,22.337,22.337,0,0,1,1.843-8.995,23.572,23.572,0,0,1,5.043-7.419,23.77,23.77,0,0,1,7.54-5.019A23.634,23.634,0,0,1-27.061-75.917Zm-.485,43.495a5.753,5.753,0,0,0,4.049-1.6,12.168,12.168,0,0,0,2.861-4.388,29.151,29.151,0,0,0,1.721-6.522,51.667,51.667,0,0,0,.582-7.952,51.667,51.667,0,0,0-.582-7.952,29.15,29.15,0,0,0-1.721-6.522A12.168,12.168,0,0,0-23.5-71.747a5.753,5.753,0,0,0-4.049-1.6,5.753,5.753,0,0,0-4.049,1.6,12.417,12.417,0,0,0-2.885,4.388A27.513,27.513,0,0,0-36.2-60.837a53.871,53.871,0,0,0-.558,7.952,53.871,53.871,0,0,0,.558,7.952,27.513,27.513,0,0,0,1.721,6.522A12.417,12.417,0,0,0-31.6-34.023,5.753,5.753,0,0,0-27.546-32.423ZM28.7-75.917a10.175,10.175,0,0,1,3.443.509,6.285,6.285,0,0,1,2.279,1.358,4.972,4.972,0,0,1,1.261,1.988,7.4,7.4,0,0,1,.388,2.4,4.6,4.6,0,0,1-1.479,3.637,5.745,5.745,0,0,1-3.952,1.309,5.488,5.488,0,0,1-2.958-.679,9.4,9.4,0,0,1-1.818-1.479q-.752-.8-1.382-1.479a2.034,2.034,0,0,0-1.552-.679,3.518,3.518,0,0,0-1.77.558,5.046,5.046,0,0,0-1.746,2.109A16.466,16.466,0,0,0,18.082-62.1a37.7,37.7,0,0,0-.533,7.031V-38.29a6.039,6.039,0,0,0,.655,3.055,5.2,5.2,0,0,0,1.5,1.7,5.44,5.44,0,0,0,1.673.8,10.339,10.339,0,0,0,1.212.267.981.981,0,0,1,.558.315.549.549,0,0,1,.121.461.789.789,0,0,1-.267.436.881.881,0,0,1-.606.194H-.392A.881.881,0,0,1-1-31.259a.789.789,0,0,1-.267-.436.549.549,0,0,1,.121-.461.981.981,0,0,1,.558-.315,10.339,10.339,0,0,0,1.212-.267,5.44,5.44,0,0,0,1.673-.8,5.2,5.2,0,0,0,1.5-1.7,6.039,6.039,0,0,0,.655-3.055V-65.638a.716.716,0,0,0-.582-.776,5.677,5.677,0,0,1-.7-.145Q2.565-66.7,1.79-66.9t-1.43-.339q-.655-.145-.8-.194-.63-.145-.655-.655t.7-.7a42.276,42.276,0,0,0,4.1-1.188q2.206-.752,4.437-1.7t4.316-2.037a38.681,38.681,0,0,0,3.734-2.206,1.333,1.333,0,0,1,.9-.242q.461.049.461.727V-68.5a12.47,12.47,0,0,1,4.606-5.576A11.977,11.977,0,0,1,28.7-75.917ZM90.04-32.471a.981.981,0,0,1,.558.315.549.549,0,0,1,.121.461.789.789,0,0,1-.267.436.881.881,0,0,1-.606.194H65.5a.881.881,0,0,1-.606-.194.789.789,0,0,1-.267-.436.549.549,0,0,1,.121-.461.981.981,0,0,1,.558-.315,10.653,10.653,0,0,0,1.333-.315,7.019,7.019,0,0,0,1.94-.921,6.248,6.248,0,0,0,1.77-1.843,5.638,5.638,0,0,0,.776-3.128v-20.9q-.048-2.037-.315-4.194A12.6,12.6,0,0,0,69.7-67.7a7.419,7.419,0,0,0-2.473-2.909,7.42,7.42,0,0,0-4.34-1.139,7.382,7.382,0,0,0-4.364,1.115,6.887,6.887,0,0,0-2.3,2.764,10.759,10.759,0,0,0-.921,3.515q-.17,1.867-.17,3.322v22.354A5.638,5.638,0,0,0,55.9-35.55a6.248,6.248,0,0,0,1.77,1.843,7.019,7.019,0,0,0,1.94.921,10.653,10.653,0,0,0,1.333.315.981.981,0,0,1,.558.315.549.549,0,0,1,.121.461.789.789,0,0,1-.267.436.881.881,0,0,1-.606.194H36.411a.881.881,0,0,1-.606-.194.789.789,0,0,1-.267-.436.549.549,0,0,1,.121-.461.981.981,0,0,1,.558-.315,10.653,10.653,0,0,0,1.333-.315,7.019,7.019,0,0,0,1.94-.921,6.248,6.248,0,0,0,1.77-1.843,5.638,5.638,0,0,0,.776-3.128v-26.96a.716.716,0,0,0-.582-.776,5.678,5.678,0,0,1-.7-.145q-.606-.145-1.382-.339t-1.43-.339q-.655-.145-.8-.194-.63-.145-.655-.655t.7-.7a42.276,42.276,0,0,0,4.1-1.188q2.206-.752,4.437-1.7t4.316-2.037a38.679,38.679,0,0,0,3.734-2.206,1.333,1.333,0,0,1,.9-.242q.461.049.461.727v4.17a18.28,18.28,0,0,1,2.327-1.77,16.056,16.056,0,0,1,2.934-1.479,21.1,21.1,0,0,1,3.637-1.018,23.494,23.494,0,0,1,4.437-.388,21.87,21.87,0,0,1,6.667.873,13.516,13.516,0,0,1,4.461,2.327,10.255,10.255,0,0,1,2.715,3.346,15.721,15.721,0,0,1,1.358,3.928,24.922,24.922,0,0,1,.485,4.049q.073,2.012.073,3.758v18.959A5.638,5.638,0,0,0,85-35.55a6.248,6.248,0,0,0,1.77,1.843,7.019,7.019,0,0,0,1.94.921A10.652,10.652,0,0,0,90.04-32.471Z" transform="translate(411.926 237.984)" fill="#fff"/>
  </g>
</svg>
